<?xml version="1.0"?><!DOCTYPE svg  PUBLIC '-//W3C//DTD SVG 1.1//EN'  'http://www.w3.org/Graphics/SVG/1.1/DTD/svg11.dtd'><svg id="Calque_1" style="enable-background:new 0 0 100 100;" version="1.1" viewBox="0 0 100 100" xml:space="preserve" xmlns="http://www.w3.org/2000/svg" xmlns:xlink="http://www.w3.org/1999/xlink"><g><g><path d="M57.1,27.9l1.4-3.6c0.5,4.4,0.8,9.9,4.6,15.3c0.3-2,1.1-3.9,1.8-5.3V31c0-1.4,0.9-2.6,2.2-2.9     c-2-11.7-11.6-20.5-23.5-20.5c-11.8,0-21.5,8.7-23.5,20.5c1.3,0.4,2.2,1.6,2.2,2.9v3.2c0.7,1.3,1.6,3.3,1.8,5.4     c3.7-5.4,4.1-10.8,4.6-15.3l1.4,3.6c0.2,0.6,0.8,1,1.4,1h24C56.3,28.9,56.9,28.4,57.1,27.9z"/><path d="M64.1,81.7V70.4c0-0.6,0.1-1.2,0.2-1.7c-0.2-0.1-0.3-0.1-0.4-0.1l-6-0.8l-1.8-5.3c0.4-0.3,0.8-0.6,1.2-0.8     c5.9-0.8,12.2-2.1,16-4.3c0.7-0.4,0.8-1.4,0.4-2.2c-1.1-1.8-2-4.2-2.8-6.5c-0.5,0.4-1.1,0.6-1.7,0.6H68c-1.7,0-3.1-1.4-3.1-3.1     v-2.4c-0.5,0.4-0.9,0.6-0.9,0.6c-0.8,0.2-1.4,0.8-1.6,1.6c-1.8,9.6-9.7,16.6-18.8,16.6c-9.1,0-16.9-7-18.7-16.6     c-0.1-0.7-0.7-1.3-1.4-1.6c-0.1,0-0.6-0.2-1.1-0.7v2.5c0,1.7-1.3,3.1-3.1,3.1H18c-0.7,0-1.3-0.2-1.7-0.6     c-0.8,2.3-1.7,4.6-2.8,6.5c-0.4,0.8-0.3,1.7,0.4,2.2c3.7,2.2,10.1,3.4,16,4.3c0.3,0.3,0.8,0.6,1.2,0.8l-1.8,5.3l-5.9,0.8     c-6.7,0.9-12.1,5.7-13.7,12.2l-2.5,9.5c-0.3,1.1-0.1,2.1,0.6,2.9c0.6,0.8,1.6,1.3,2.7,1.3h45.9c-0.1-0.2-0.1-0.4-0.2-0.7     C55.1,88.5,58.7,83.3,64.1,81.7z M32.7,69.7l1.8-5.3c2.8,1.3,5.9,2.1,9.2,2.1c3.2,0,6.2-0.8,9.1-2.1l1.8,5.3     C48,74.4,39.2,74.4,32.7,69.7z"/><path d="M41.3,35.4c0-0.8-0.6-1.4-1.4-1.4s-1.4,0.6-1.4,1.4c0,1.1-0.9,2-2,2s-2-0.9-2-2c0-0.8-0.6-1.4-1.4-1.4     c-0.8,0-1.4,0.6-1.4,1.4c0,2.6,2.1,4.8,4.8,4.8C39.2,40.2,41.3,38.1,41.3,35.4z"/><path d="M55.5,35.4c0-0.8-0.6-1.4-1.4-1.4s-1.4,0.6-1.4,1.4c0,1.1-0.9,2-2,2c-1.1,0-2-0.9-2-2c0-0.8-0.6-1.4-1.4-1.4     s-1.4,0.6-1.4,1.4c0,2.6,2.1,4.8,4.8,4.8C53.3,40.2,55.5,38.1,55.5,35.4z"/><path d="M43.6,54.2c2.8,0,5.5-1.1,7-2.7c0.5-0.6,0.4-1.5-0.1-2c-0.6-0.5-1.5-0.4-2,0.1c-1.8,2.2-7.9,2.2-9.7,0     c-0.5-0.6-1.4-0.7-2-0.1c-0.6,0.5-0.6,1.4-0.1,2C38.1,53.1,40.8,54.2,43.6,54.2z"/><path d="M16.7,46.5c0.1,0.6,0.6,1.1,1.3,1.1h1.3c0.8,0,1.4-0.6,1.4-1.4V31c0-0.8-0.6-1.4-1.4-1.4H18c-0.2,0-0.3,0.1-0.4,0.2     c0.9-13.6,12.2-24.5,26-24.5s25.1,10.8,26,24.5c-0.1-0.1-0.2-0.2-0.4-0.2H68c-0.8,0-1.4,0.6-1.4,1.4v15.2c0,0.8,0.6,1.4,1.4,1.4     h1.3c0.7,0,1.2-0.5,1.3-1.1c4-0.5,7.1-3.8,7.1-7.9c0-3.3-2.1-6.1-5-7.3c-0.1-15.9-13-28.8-29-28.8s-28.9,12.9-29,28.8     c-2.9,1.2-5,3.9-5,7.3C9.6,42.7,12.7,46,16.7,46.5z"/><path d="M89.6,64.4c-0.2,0-0.3,0-0.5,0l-17.7,2.7c-1.6,0.2-2.8,1.7-2.8,3.3v15.4c-0.3,0-0.7-0.1-1-0.1c-0.5,0-1,0-1.5,0.1     c-3.7,0.7-6.2,3.9-5.5,7.1c0.5,2.7,3.1,4.6,6.3,4.6c0.5,0,1,0,1.5-0.1c3.2-0.6,5.6-3.2,5.6-6V75.5l13.7-2.1v9.3     c-0.3,0-0.7-0.1-1-0.1c-0.5,0-1,0-1.5,0.1c-1.7,0.3-3.3,1.2-4.3,2.5c-1.1,1.3-1.5,3-1.2,4.5c0.5,2.7,3.1,4.6,6.3,4.6     c0.5,0,1,0,1.5-0.1c3.2-0.6,5.6-3.2,5.6-6V67.7C93,65.9,91.5,64.4,89.6,64.4z"/></g></g></svg>